<svg width="70" height="70" viewBox="0 0 70 70" fill="none" xmlns="http://www.w3.org/2000/svg">
    <circle cx="35" cy="35" r="35" fill="black" />
    <path
        d="M21.4734 43.0254H13.2138V26.7011H21.4734C26.8579 26.7011 30.269 29.698 30.269 34.8633C30.269 40.0286 26.8579 43.0254 21.4734 43.0254ZM21.4734 30.8188H17.7943V38.9078H21.4734C24.3728 38.9078 25.3717 38.5423 25.3717 34.8633C25.3717 31.1842 24.3728 30.8188 21.4734 30.8188ZM39.7649 46.2659H30.9936V43.0254H39.7649V46.2659ZM49.2642 43.0254H41.0046V26.7011H49.2642C54.6487 26.7011 58.0598 29.698 58.0598 34.8633C58.0598 40.0286 54.6487 43.0254 49.2642 43.0254ZM49.2642 30.8188H45.5851V38.9078H49.2642C52.1636 38.9078 53.1625 38.5423 53.1625 34.8633C53.1625 31.1842 52.1636 30.8188 49.2642 30.8188Z"
        fill="white" />
</svg>