<svg width="11" height="19" viewBox="0 0 11 19" fill="none" xmlns="http://www.w3.org/2000/svg">
    <path
        d="M0.994141 12.7197H2.99414C2.99414 13.7997 4.36414 14.7197 5.99414 14.7197C7.62414 14.7197 8.99414 13.7997 8.99414 12.7197C8.99414 11.6197 7.95414 11.2197 5.75414 10.6897C3.63414 10.1597 0.994141 9.49973 0.994141 6.71973C0.994141 4.92973 2.46414 3.40973 4.49414 2.89973V0.719727H7.49414V2.89973C9.52414 3.40973 10.9941 4.92973 10.9941 6.71973H8.99414C8.99414 5.63973 7.62414 4.71973 5.99414 4.71973C4.36414 4.71973 2.99414 5.63973 2.99414 6.71973C2.99414 7.81973 4.03414 8.21973 6.23414 8.74973C8.35414 9.27973 10.9941 9.93973 10.9941 12.7197C10.9941 14.5097 9.52414 16.0297 7.49414 16.5397V18.7197H4.49414V16.5397C2.46414 16.0297 0.994141 14.5097 0.994141 12.7197Z"
        fill="#666666" />
</svg>