<svg width="27" height="27" viewBox="0 0 27 27" fill="none" xmlns="http://www.w3.org/2000/svg">
<path d="M13.4974 2.6665C12.0747 2.6665 10.666 2.94672 9.35166 3.49114C8.0373 4.03557 6.84304 4.83355 5.83707 5.83951C3.80543 7.87116 2.66406 10.6267 2.66406 13.4998C2.66406 18.2882 5.77323 22.3507 10.0741 23.7915C10.6157 23.8782 10.7891 23.5423 10.7891 23.2498C10.7891 23.0007 10.7891 22.3182 10.7891 21.419C7.78823 22.069 7.14906 19.9673 7.14906 19.9673C6.65073 18.7107 5.94656 18.3748 5.94656 18.3748C4.96073 17.7032 6.0224 17.7248 6.0224 17.7248C7.10573 17.8007 7.6799 18.8407 7.6799 18.8407C8.6224 20.4873 10.2149 19.9998 10.8324 19.7398C10.9299 19.0357 11.2116 18.559 11.5149 18.2882C9.1099 18.0173 6.58573 17.0857 6.58573 12.9582C6.58573 11.7557 6.9974 10.7915 7.70156 10.0223C7.59323 9.7515 7.21406 8.62484 7.8099 7.16234C7.8099 7.16234 8.7199 6.86984 10.7891 8.26734C11.6449 8.029 12.5766 7.90984 13.4974 7.90984C14.4182 7.90984 15.3499 8.029 16.2057 8.26734C18.2749 6.86984 19.1849 7.16234 19.1849 7.16234C19.7807 8.62484 19.4016 9.7515 19.2932 10.0223C19.9974 10.7915 20.4091 11.7557 20.4091 12.9582C20.4091 17.0965 17.8741 18.0065 15.4582 18.2773C15.8482 18.6132 16.2057 19.274 16.2057 20.2815C16.2057 21.7332 16.2057 22.9032 16.2057 23.2498C16.2057 23.5423 16.3791 23.889 16.9316 23.7915C21.2324 22.3398 24.3307 18.2882 24.3307 13.4998C24.3307 12.0772 24.0505 10.6685 23.5061 9.3541C22.9617 8.03974 22.1637 6.84548 21.1577 5.83951C20.1518 4.83355 18.9575 4.03557 17.6431 3.49114C16.3288 2.94672 14.92 2.6665 13.4974 2.6665Z" fill="white" fill-opacity="0.6"/>
</svg>
