<svg width="22" height="22" viewBox="0 0 22 22" fill="none" xmlns="http://www.w3.org/2000/svg">
<path fill-rule="evenodd" clip-rule="evenodd" d="M14.9234 0.810718C15.5982 0.810718 16.2719 0.905887 16.9124 1.12082C20.8593 2.40401 22.2815 6.73478 21.0935 10.5202C20.4198 12.4546 19.3184 14.22 17.8759 15.6626C15.811 17.6622 13.5451 19.4373 11.106 20.9664L10.8386 21.1279L10.5606 20.9557C8.11292 19.4373 5.83419 17.6622 3.75007 15.6519C2.31718 14.2094 1.2147 12.4546 0.530336 10.5202C-0.678001 6.73478 0.744201 2.40401 4.73385 1.09837C5.04396 0.991433 5.36368 0.916581 5.68448 0.874877H5.8128C6.11328 0.831035 6.41162 0.810718 6.71103 0.810718H6.82866C7.50233 0.831035 8.15462 0.94866 8.78659 1.16359H8.84968C8.89246 1.18391 8.92453 1.20637 8.94592 1.22668C9.18224 1.30261 9.40573 1.38815 9.6196 1.50578L10.0259 1.68756C10.1241 1.73993 10.2343 1.81995 10.3296 1.8891C10.3899 1.93291 10.4443 1.97237 10.4857 1.99767C10.5032 2.00796 10.5209 2.01832 10.5388 2.02875C10.6305 2.08227 10.726 2.13803 10.8065 2.19977C11.9946 1.29191 13.4371 0.800024 14.9234 0.810718ZM17.7677 8.50955C18.2061 8.49779 18.5804 8.14598 18.6124 7.6958V7.56855C18.6445 6.07042 17.7367 4.71345 16.3562 4.18948C15.9178 4.0387 15.4366 4.27503 15.2762 4.72414C15.1265 5.17326 15.3617 5.66515 15.8108 5.82448C16.4963 6.08112 16.955 6.75586 16.955 7.50332V7.53647C16.9347 7.78134 17.0085 8.01766 17.1582 8.19945C17.3079 8.38123 17.5324 8.4871 17.7677 8.50955Z" fill="#DDDDDD"/>
</svg>
