<svg width="25" height="25" viewBox="0 0 25 25" fill="none" xmlns="http://www.w3.org/2000/svg">
<g clip-path="url(#clip0_594_2067)">
<path d="M12.9941 6.21973C13.9224 6.21973 14.8126 6.58848 15.469 7.24485C16.1254 7.90123 16.4941 8.79147 16.4941 9.71973C16.4941 10.648 16.1254 11.5382 15.469 12.1946C14.8126 12.851 13.9224 13.2197 12.9941 13.2197C12.0659 13.2197 11.1756 12.851 10.5193 12.1946C9.86289 11.5382 9.49414 10.648 9.49414 9.71973C9.49414 8.79147 9.86289 7.90123 10.5193 7.24485C11.1756 6.58848 12.0659 6.21973 12.9941 6.21973ZM5.99414 8.71973C6.55414 8.71973 7.07414 8.86973 7.52414 9.13973C7.37414 10.5697 7.79414 11.9897 8.65414 13.0997C8.15414 14.0597 7.15414 14.7197 5.99414 14.7197C5.19849 14.7197 4.43543 14.4037 3.87282 13.841C3.31021 13.2784 2.99414 12.5154 2.99414 11.7197C2.99414 10.9241 3.31021 10.161 3.87282 9.59841C4.43543 9.0358 5.19849 8.71973 5.99414 8.71973ZM19.9941 8.71973C20.7898 8.71973 21.5529 9.0358 22.1155 9.59841C22.6781 10.161 22.9941 10.9241 22.9941 11.7197C22.9941 12.5154 22.6781 13.2784 22.1155 13.841C21.5529 14.4037 20.7898 14.7197 19.9941 14.7197C18.8341 14.7197 17.8341 14.0597 17.3341 13.0997C18.1941 11.9897 18.6141 10.5697 18.4641 9.13973C18.9141 8.86973 19.4341 8.71973 19.9941 8.71973ZM6.49414 18.9697C6.49414 16.8997 9.40414 15.2197 12.9941 15.2197C16.5841 15.2197 19.4941 16.8997 19.4941 18.9697V20.7197H6.49414V18.9697ZM0.994141 20.7197V19.2197C0.994141 17.8297 2.88414 16.6597 5.44414 16.3197C4.85414 16.9997 4.49414 17.9397 4.49414 18.9697V20.7197H0.994141ZM24.9941 20.7197H21.4941V18.9697C21.4941 17.9397 21.1341 16.9997 20.5441 16.3197C23.1041 16.6597 24.9941 17.8297 24.9941 19.2197V20.7197Z" fill="#666666"/>
</g>
<defs>
<clipPath id="clip0_594_2067">
<rect width="24" height="24" fill="white" transform="translate(0.994141 0.719727)"/>
</clipPath>
</defs>
</svg>
