<svg width="25" height="25" viewBox="0 0 25 25" fill="none" xmlns="http://www.w3.org/2000/svg">
<path d="M13.9844 8.68945H11.9844V6.68945H13.9844V8.68945ZM13.9844 13.1895H11.9844V11.1895H13.9844V13.1895ZM13.9844 17.6895H11.9844V15.6895H13.9844V17.6895ZM22.9844 10.1895V6.18945C22.9844 5.07945 22.0844 4.18945 20.9844 4.18945H4.98438C4.45394 4.18945 3.94523 4.40017 3.57016 4.77524C3.19509 5.15031 2.98438 5.65902 2.98438 6.18945V10.1895C4.09438 10.1895 4.98438 11.0895 4.98438 12.1895C4.98438 12.7199 4.77366 13.2286 4.39859 13.6037C4.02352 13.9787 3.51481 14.1895 2.98438 14.1895V18.1895C2.98438 18.7199 3.19509 19.2286 3.57016 19.6037C3.94523 19.9787 4.45394 20.1895 4.98438 20.1895H20.9844C21.5148 20.1895 22.0235 19.9787 22.3986 19.6037C22.7737 19.2286 22.9844 18.7199 22.9844 18.1895V14.1895C22.4539 14.1895 21.9452 13.9787 21.5702 13.6037C21.1951 13.2286 20.9844 12.7199 20.9844 12.1895C20.9844 11.659 21.1951 11.1503 21.5702 10.7752C21.9452 10.4002 22.4539 10.1895 22.9844 10.1895Z" fill="#666666"/>
</svg>
