<svg width="28" height="27" viewBox="0 0 28 27" fill="none" xmlns="http://www.w3.org/2000/svg">
<path d="M26.2635 6.75C25.3973 7.14375 24.4635 7.4025 23.496 7.52625C24.486 6.93 25.251 5.985 25.611 4.84875C24.6773 5.41125 23.6423 5.805 22.551 6.03C21.6623 5.0625 20.4135 4.5 18.996 4.5C16.3523 4.5 14.1923 6.66 14.1923 9.32625C14.1923 9.70875 14.2373 10.08 14.316 10.4288C10.311 10.2263 6.74477 8.3025 4.37102 5.38875C3.95477 6.0975 3.71852 6.93 3.71852 7.8075C3.71852 9.48375 4.56227 10.9688 5.86727 11.8125C5.06852 11.8125 4.32602 11.5875 3.67352 11.25C3.67352 11.25 3.67352 11.25 3.67352 11.2837C3.67352 13.6237 5.33852 15.5813 7.54352 16.02C7.13852 16.1325 6.71102 16.1888 6.27227 16.1888C5.96852 16.1888 5.66477 16.155 5.37227 16.0988C5.97977 18 7.74602 19.4175 9.87227 19.4513C8.22977 20.7563 6.14852 21.5212 3.87602 21.5212C3.49352 21.5212 3.11102 21.4987 2.72852 21.4538C4.86602 22.8263 7.40852 23.625 10.131 23.625C18.996 23.625 23.8673 16.2675 23.8673 9.88875C23.8673 9.675 23.8673 9.4725 23.856 9.25875C24.801 8.58375 25.611 7.72875 26.2635 6.75Z" fill="#A9A9AA"/>
</svg>
