<svg width="29" height="29" viewBox="0 0 29 29" fill="none" xmlns="http://www.w3.org/2000/svg">
<path d="M12.1615 18.0002L18.2165 14.5002L12.1615 11.0002V18.0002ZM25.6481 8.86516C25.7998 9.4135 25.9048 10.1485 25.9748 11.0818C26.0565 12.0152 26.0915 12.8202 26.0915 13.5202L26.1615 14.5002C26.1615 17.0552 25.9748 18.9335 25.6481 20.1352C25.3565 21.1852 24.6798 21.8618 23.6298 22.1535C23.0815 22.3052 22.0781 22.4102 20.5381 22.4802C19.0215 22.5618 17.6331 22.5968 16.3498 22.5968L14.4948 22.6668C9.60646 22.6668 6.56146 22.4802 5.35979 22.1535C4.30979 21.8618 3.63313 21.1852 3.34146 20.1352C3.18979 19.5868 3.08479 18.8518 3.01479 17.9185C2.93313 16.9852 2.89812 16.1802 2.89812 15.4802L2.82812 14.5002C2.82812 11.9452 3.01479 10.0668 3.34146 8.86516C3.63313 7.81516 4.30979 7.1385 5.35979 6.84683C5.90813 6.69516 6.91146 6.59016 8.45146 6.52016C9.96813 6.4385 11.3565 6.4035 12.6398 6.4035L14.4948 6.3335C19.3831 6.3335 22.4281 6.52016 23.6298 6.84683C24.6798 7.1385 25.3565 7.81516 25.6481 8.86516Z" fill="#A9A9AA"/>
</svg>
